{
	"asset":{
		"generator":"Khronos glTF Blender I/O v4.4.56",
		"version":"2.0"
	},
	"scene":0,
	"scenes":[
		{
			"name":"Scene",
			"nodes":[
				0
			]
		}
	],
	"nodes":[
		{
			"mesh":0,
			"name":"Geo_Snail"
		}
	],
	"materials":[
		{
			"name":"blinn1SG",
			"pbrMetallicRoughness":{
				"baseColorTexture":{
					"index":0
				},
				"metallicFactor":0,
				"roughnessFactor":0.9200000166893005
			}
		}
	],
	"meshes":[
		{
			"name":"Geo_Snail_1",
			"primitives":[
				{
					"attributes":{
						"POSITION":0,
						"NORMAL":1,
						"TEXCOORD_0":2
					},
					"indices":3,
					"material":0
				}
			]
		}
	],
	"textures":[
		{
			"sampler":0,
			"source":0
		}
	],
	"images":[
		{
			"mimeType":"image/png",
			"name":"Tex_Snail",
			"uri":"Tex_Snail.png"
		}
	],
	"accessors":[
		{
			"bufferView":0,
			"componentType":5126,
			"count":803,
			"max":[
				1.0077489614486694,
				3.2005720138549805,
				3.446830987930298
			],
			"min":[
				-1.5008959770202637,
				-0.6566060185432434,
				-3.5954411029815674
			],
			"type":"VEC3"
		},
		{
			"bufferView":1,
			"componentType":5126,
			"count":803,
			"type":"VEC3"
		},
		{
			"bufferView":2,
			"componentType":5126,
			"count":803,
			"type":"VEC2"
		},
		{
			"bufferView":3,
			"componentType":5123,
			"count":1197,
			"type":"SCALAR"
		}
	],
	"bufferViews":[
		{
			"buffer":0,
			"byteLength":9636,
			"byteOffset":0,
			"target":34962
		},
		{
			"buffer":0,
			"byteLength":9636,
			"byteOffset":9636,
			"target":34962
		},
		{
			"buffer":0,
			"byteLength":6424,
			"byteOffset":19272,
			"target":34962
		},
		{
			"buffer":0,
			"byteLength":2394,
			"byteOffset":25696,
			"target":34963
		}
	],
	"samplers":[
		{
			"magFilter":9729,
			"minFilter":9987
		}
	],
	"buffers":[
		{
			"byteLength":28092,
			"uri":"Caracol.bin"
		}
	]
}
