{
	"asset":{
		"generator":"Khronos glTF Blender I/O v4.4.56",
		"version":"2.0"
	},
	"scene":0,
	"scenes":[
		{
			"name":"Scene",
			"nodes":[
				1
			]
		}
	],
	"nodes":[
		{
			"mesh":0,
			"name":"pot_large",
			"scale":[
				100,
				100,
				100
			]
		},
		{
			"children":[
				0
			],
			"name":"RootNode"
		}
	],
	"materials":[
		{
			"name":"restaurant",
			"pbrMetallicRoughness":{
				"baseColorTexture":{
					"index":0
				},
				"metallicFactor":0.4000000059604645
			}
		}
	],
	"meshes":[
		{
			"name":"pot_large",
			"primitives":[
				{
					"attributes":{
						"POSITION":0,
						"NORMAL":1,
						"TEXCOORD_0":2
					},
					"indices":3,
					"material":0
				}
			]
		}
	],
	"textures":[
		{
			"sampler":0,
			"source":0
		}
	],
	"images":[
		{
			"mimeType":"image/png",
			"name":"restaurantbits_texture",
			"uri":"restaurantbits_texture.png"
		}
	],
	"accessors":[
		{
			"bufferView":0,
			"componentType":5126,
			"count":454,
			"max":[
				0.009999999776482582,
				0.0075000012293457985,
				0.0060000005178153515
			],
			"min":[
				-0.009999999776482582,
				-3.2174832242937157e-10,
				-0.006000000052154064
			],
			"type":"VEC3"
		},
		{
			"bufferView":1,
			"componentType":5126,
			"count":454,
			"type":"VEC3"
		},
		{
			"bufferView":2,
			"componentType":5126,
			"count":454,
			"type":"VEC2"
		},
		{
			"bufferView":3,
			"componentType":5123,
			"count":1164,
			"type":"SCALAR"
		}
	],
	"bufferViews":[
		{
			"buffer":0,
			"byteLength":5448,
			"byteOffset":0,
			"target":34962
		},
		{
			"buffer":0,
			"byteLength":5448,
			"byteOffset":5448,
			"target":34962
		},
		{
			"buffer":0,
			"byteLength":3632,
			"byteOffset":10896,
			"target":34962
		},
		{
			"buffer":0,
			"byteLength":2328,
			"byteOffset":14528,
			"target":34963
		}
	],
	"samplers":[
		{
			"magFilter":9729,
			"minFilter":9987
		}
	],
	"buffers":[
		{
			"byteLength":16856,
			"uri":"Modelo2.bin"
		}
	]
}
