{
	"asset":{
		"generator":"Khronos glTF Blender I/O v4.4.56",
		"version":"2.0"
	},
	"scene":0,
	"scenes":[
		{
			"name":"Scene",
			"nodes":[
				0
			]
		}
	],
	"nodes":[
		{
			"mesh":0,
			"name":"Node"
		}
	],
	"materials":[
		{
			"name":"mat18",
			"pbrMetallicRoughness":{
				"baseColorFactor":[
					1,
					0.6100000143051147,
					0.25,
					1
				],
				"metallicFactor":0
			}
		},
		{
			"name":"mat21",
			"pbrMetallicRoughness":{
				"metallicFactor":0
			}
		},
		{
			"name":"mat19",
			"pbrMetallicRoughness":{
				"baseColorFactor":[
					0.7400000095367432,
					0.33000001311302185,
					0.05999999865889549,
					1
				],
				"metallicFactor":0
			}
		}
	],
	"meshes":[
		{
			"name":"Node-Mesh",
			"primitives":[
				{
					"attributes":{
						"POSITION":0,
						"NORMAL":1
					},
					"indices":2,
					"material":0
				},
				{
					"attributes":{
						"POSITION":3,
						"NORMAL":4
					},
					"indices":5,
					"material":1
				},
				{
					"attributes":{
						"POSITION":6,
						"NORMAL":7
					},
					"indices":8,
					"material":2
				}
			]
		}
	],
	"accessors":[
		{
			"bufferView":0,
			"componentType":5126,
			"count":552,
			"max":[
				0.11515159904956818,
				0.08666670322418213,
				0.1151513010263443
			],
			"min":[
				-0.11515159904956818,
				-0.33333340287208557,
				-0.11515170335769653
			],
			"type":"VEC3"
		},
		{
			"bufferView":1,
			"componentType":5126,
			"count":552,
			"type":"VEC3"
		},
		{
			"bufferView":2,
			"componentType":5123,
			"count":900,
			"type":"SCALAR"
		},
		{
			"bufferView":3,
			"componentType":5126,
			"count":192,
			"max":[
				0.11515159904956818,
				0.046666260808706284,
				0.1151513010263443
			],
			"min":[
				-0.11515159904956818,
				-0.32333341240882874,
				-0.11515170335769653
			],
			"type":"VEC3"
		},
		{
			"bufferView":4,
			"componentType":5126,
			"count":192,
			"type":"VEC3"
		},
		{
			"bufferView":5,
			"componentType":5123,
			"count":288,
			"type":"SCALAR"
		},
		{
			"bufferView":6,
			"componentType":5126,
			"count":48,
			"max":[
				0.04738498106598854,
				0.07666683197021484,
				0.04738510027527809
			],
			"min":[
				-0.04738495871424675,
				0.07666683197021484,
				-0.04738486185669899
			],
			"type":"VEC3"
		},
		{
			"bufferView":7,
			"componentType":5126,
			"count":48,
			"type":"VEC3"
		},
		{
			"bufferView":8,
			"componentType":5123,
			"count":72,
			"type":"SCALAR"
		}
	],
	"bufferViews":[
		{
			"buffer":0,
			"byteLength":6624,
			"byteOffset":0,
			"target":34962
		},
		{
			"buffer":0,
			"byteLength":6624,
			"byteOffset":6624,
			"target":34962
		},
		{
			"buffer":0,
			"byteLength":1800,
			"byteOffset":13248,
			"target":34963
		},
		{
			"buffer":0,
			"byteLength":2304,
			"byteOffset":15048,
			"target":34962
		},
		{
			"buffer":0,
			"byteLength":2304,
			"byteOffset":17352,
			"target":34962
		},
		{
			"buffer":0,
			"byteLength":576,
			"byteOffset":19656,
			"target":34963
		},
		{
			"buffer":0,
			"byteLength":576,
			"byteOffset":20232,
			"target":34962
		},
		{
			"buffer":0,
			"byteLength":576,
			"byteOffset":20808,
			"target":34962
		},
		{
			"buffer":0,
			"byteLength":144,
			"byteOffset":21384,
			"target":34963
		}
	],
	"buffers":[
		{
			"byteLength":21528,
			"uri":"Modelo8.bin"
		}
	]
}
