{
	"asset":{
		"generator":"Khronos glTF Blender I/O v4.4.56",
		"version":"2.0"
	},
	"scene":0,
	"scenes":[
		{
			"name":"Scene",
			"nodes":[
				0
			]
		}
	],
	"nodes":[
		{
			"mesh":0,
			"name":"honey"
		}
	],
	"materials":[
		{
			"name":"brownLight",
			"pbrMetallicRoughness":{
				"baseColorFactor":[
					0.9800000190734863,
					0.6499999761581421,
					0.3700000047683716,
					1
				],
				"metallicFactor":0
			}
		},
		{
			"name":"brownDark",
			"pbrMetallicRoughness":{
				"baseColorFactor":[
					0.6000000238418579,
					0.2199999988079071,
					0.10999999940395355,
					1
				],
				"metallicFactor":0
			}
		},
		{
			"name":"yellow",
			"pbrMetallicRoughness":{
				"baseColorFactor":[
					1,
					0.6100000143051147,
					0.10999999940395355,
					1
				],
				"metallicFactor":0
			}
		}
	],
	"meshes":[
		{
			"name":"honey_1",
			"primitives":[
				{
					"attributes":{
						"POSITION":0,
						"NORMAL":1,
						"TEXCOORD_0":2
					},
					"indices":3,
					"material":0
				},
				{
					"attributes":{
						"POSITION":4,
						"NORMAL":5,
						"TEXCOORD_0":6
					},
					"indices":7,
					"material":1
				},
				{
					"attributes":{
						"POSITION":8,
						"NORMAL":9,
						"TEXCOORD_0":10
					},
					"indices":11,
					"material":2
				}
			]
		}
	],
	"accessors":[
		{
			"bufferView":0,
			"componentType":5126,
			"count":104,
			"max":[
				0.15560999512672424,
				0.2787820100784302,
				0.15560999512672424
			],
			"min":[
				-0.15560999512672424,
				0,
				-0.15560999512672424
			],
			"type":"VEC3"
		},
		{
			"bufferView":1,
			"componentType":5126,
			"count":104,
			"type":"VEC3"
		},
		{
			"bufferView":2,
			"componentType":5126,
			"count":104,
			"type":"VEC2"
		},
		{
			"bufferView":3,
			"componentType":5123,
			"count":162,
			"type":"SCALAR"
		},
		{
			"bufferView":4,
			"componentType":5126,
			"count":120,
			"max":[
				0.16301999986171722,
				0.3160179853439331,
				0.16301999986171722
			],
			"min":[
				-0.16301999986171722,
				0.04639999940991402,
				-0.16301999986171722
			],
			"type":"VEC3"
		},
		{
			"bufferView":5,
			"componentType":5126,
			"count":120,
			"type":"VEC3"
		},
		{
			"bufferView":6,
			"componentType":5126,
			"count":120,
			"type":"VEC2"
		},
		{
			"bufferView":7,
			"componentType":5123,
			"count":210,
			"type":"SCALAR"
		},
		{
			"bufferView":8,
			"componentType":5126,
			"count":32,
			"max":[
				0.16301999986171722,
				0.2029999941587448,
				0.16301999986171722
			],
			"min":[
				-0.16301999986171722,
				0.15080000460147858,
				-0.16301999986171722
			],
			"type":"VEC3"
		},
		{
			"bufferView":9,
			"componentType":5126,
			"count":32,
			"type":"VEC3"
		},
		{
			"bufferView":10,
			"componentType":5126,
			"count":32,
			"type":"VEC2"
		},
		{
			"bufferView":11,
			"componentType":5123,
			"count":48,
			"type":"SCALAR"
		}
	],
	"bufferViews":[
		{
			"buffer":0,
			"byteLength":1248,
			"byteOffset":0,
			"target":34962
		},
		{
			"buffer":0,
			"byteLength":1248,
			"byteOffset":1248,
			"target":34962
		},
		{
			"buffer":0,
			"byteLength":832,
			"byteOffset":2496,
			"target":34962
		},
		{
			"buffer":0,
			"byteLength":324,
			"byteOffset":3328,
			"target":34963
		},
		{
			"buffer":0,
			"byteLength":1440,
			"byteOffset":3652,
			"target":34962
		},
		{
			"buffer":0,
			"byteLength":1440,
			"byteOffset":5092,
			"target":34962
		},
		{
			"buffer":0,
			"byteLength":960,
			"byteOffset":6532,
			"target":34962
		},
		{
			"buffer":0,
			"byteLength":420,
			"byteOffset":7492,
			"target":34963
		},
		{
			"buffer":0,
			"byteLength":384,
			"byteOffset":7912,
			"target":34962
		},
		{
			"buffer":0,
			"byteLength":384,
			"byteOffset":8296,
			"target":34962
		},
		{
			"buffer":0,
			"byteLength":256,
			"byteOffset":8680,
			"target":34962
		},
		{
			"buffer":0,
			"byteLength":96,
			"byteOffset":8936,
			"target":34963
		}
	],
	"buffers":[
		{
			"byteLength":9032,
			"uri":"Modelo5.bin"
		}
	]
}
