{
	"asset":{
		"generator":"Khronos glTF Blender I/O v4.4.56",
		"version":"2.0"
	},
	"scene":0,
	"scenes":[
		{
			"name":"Scene",
			"nodes":[
				0
			]
		}
	],
	"nodes":[
		{
			"mesh":0,
			"name":"Node"
		}
	],
	"materials":[
		{
			"name":"mat19",
			"pbrMetallicRoughness":{
				"baseColorFactor":[
					0.7400000095367432,
					0.33000001311302185,
					0.05999999865889549,
					1
				],
				"metallicFactor":0
			}
		},
		{
			"name":"mat18",
			"pbrMetallicRoughness":{
				"baseColorFactor":[
					1,
					0.6100000143051147,
					0.25,
					1
				],
				"metallicFactor":0
			}
		},
		{
			"name":"mat20",
			"pbrMetallicRoughness":{
				"baseColorFactor":[
					0.1899999976158142,
					0.09000000357627869,
					0.05999999865889549,
					1
				],
				"metallicFactor":0
			}
		},
		{
			"name":"mat23",
			"pbrMetallicRoughness":{
				"baseColorFactor":[
					0.009999999776482582,
					0.009999999776482582,
					0.009999999776482582,
					1
				],
				"metallicFactor":0
			}
		}
	],
	"meshes":[
		{
			"name":"Node-Mesh",
			"primitives":[
				{
					"attributes":{
						"POSITION":0,
						"NORMAL":1
					},
					"indices":2,
					"material":0
				},
				{
					"attributes":{
						"POSITION":3,
						"NORMAL":4
					},
					"indices":5,
					"material":1
				},
				{
					"attributes":{
						"POSITION":6,
						"NORMAL":7
					},
					"indices":8,
					"material":2
				},
				{
					"attributes":{
						"POSITION":9,
						"NORMAL":10
					},
					"indices":11,
					"material":3
				}
			]
		}
	],
	"accessors":[
		{
			"bufferView":0,
			"componentType":5126,
			"count":684,
			"max":[
				0.3830418884754181,
				0.6751341819763184,
				0.3845107853412628
			],
			"min":[
				-0.38274839520454407,
				-0.7848660945892334,
				-0.5329294800758362
			],
			"type":"VEC3"
		},
		{
			"bufferView":1,
			"componentType":5126,
			"count":684,
			"type":"VEC3"
		},
		{
			"bufferView":2,
			"componentType":5123,
			"count":954,
			"type":"SCALAR"
		},
		{
			"bufferView":3,
			"componentType":5126,
			"count":108,
			"max":[
				0.33174368739128113,
				0.6751341819763184,
				0.23286080360412598
			],
			"min":[
				-0.33145031332969666,
				-0.5748661756515503,
				-0.5329294800758362
			],
			"type":"VEC3"
		},
		{
			"bufferView":4,
			"componentType":5126,
			"count":108,
			"type":"VEC3"
		},
		{
			"bufferView":5,
			"componentType":5123,
			"count":108,
			"type":"SCALAR"
		},
		{
			"bufferView":6,
			"componentType":5126,
			"count":156,
			"max":[
				0.3830418884754181,
				0.6751341819763184,
				0.23286080360412598
			],
			"min":[
				-0.38274839520454407,
				-0.5748661756515503,
				-0.5329294800758362
			],
			"type":"VEC3"
		},
		{
			"bufferView":7,
			"componentType":5126,
			"count":156,
			"type":"VEC3"
		},
		{
			"bufferView":8,
			"componentType":5123,
			"count":180,
			"type":"SCALAR"
		},
		{
			"bufferView":9,
			"componentType":5126,
			"count":60,
			"max":[
				0.10746259987354279,
				0.5151345729827881,
				-0.042720820754766464
			],
			"min":[
				-0.10716959834098816,
				0.42513468861579895,
				-0.25735318660736084
			],
			"type":"VEC3"
		},
		{
			"bufferView":10,
			"componentType":5126,
			"count":60,
			"type":"VEC3"
		},
		{
			"bufferView":11,
			"componentType":5123,
			"count":102,
			"type":"SCALAR"
		}
	],
	"bufferViews":[
		{
			"buffer":0,
			"byteLength":8208,
			"byteOffset":0,
			"target":34962
		},
		{
			"buffer":0,
			"byteLength":8208,
			"byteOffset":8208,
			"target":34962
		},
		{
			"buffer":0,
			"byteLength":1908,
			"byteOffset":16416,
			"target":34963
		},
		{
			"buffer":0,
			"byteLength":1296,
			"byteOffset":18324,
			"target":34962
		},
		{
			"buffer":0,
			"byteLength":1296,
			"byteOffset":19620,
			"target":34962
		},
		{
			"buffer":0,
			"byteLength":216,
			"byteOffset":20916,
			"target":34963
		},
		{
			"buffer":0,
			"byteLength":1872,
			"byteOffset":21132,
			"target":34962
		},
		{
			"buffer":0,
			"byteLength":1872,
			"byteOffset":23004,
			"target":34962
		},
		{
			"buffer":0,
			"byteLength":360,
			"byteOffset":24876,
			"target":34963
		},
		{
			"buffer":0,
			"byteLength":720,
			"byteOffset":25236,
			"target":34962
		},
		{
			"buffer":0,
			"byteLength":720,
			"byteOffset":25956,
			"target":34962
		},
		{
			"buffer":0,
			"byteLength":204,
			"byteOffset":26676,
			"target":34963
		}
	],
	"buffers":[
		{
			"byteLength":26880,
			"uri":"Modelo7.bin"
		}
	]
}
