{
	"asset":{
		"generator":"Khronos glTF Blender I/O v4.4.56",
		"version":"2.0"
	},
	"scene":0,
	"scenes":[
		{
			"name":"Scene",
			"nodes":[
				0
			]
		}
	],
	"nodes":[
		{
			"mesh":0,
			"name":"Cylinder002"
		}
	],
	"materials":[
		{
			"name":"03___Default",
			"pbrMetallicRoughness":{
				"baseColorFactor":[
					0.2824000120162964,
					0.694100022315979,
					0.8823999762535095,
					1
				],
				"metallicFactor":0,
				"roughnessFactor":0.9900000095367432
			}
		},
		{
			"name":"02___Default",
			"pbrMetallicRoughness":{
				"baseColorFactor":[
					0.5881999731063843,
					0.33730000257492065,
					0.22750000655651093,
					1
				],
				"metallicFactor":0,
				"roughnessFactor":0.9900000095367432
			}
		}
	],
	"meshes":[
		{
			"name":"Cylinder002_1",
			"primitives":[
				{
					"attributes":{
						"POSITION":0,
						"NORMAL":1,
						"TEXCOORD_0":2
					},
					"indices":3,
					"material":0
				},
				{
					"attributes":{
						"POSITION":4,
						"NORMAL":5,
						"TEXCOORD_0":6
					},
					"indices":7,
					"material":1
				}
			]
		}
	],
	"accessors":[
		{
			"bufferView":0,
			"componentType":5126,
			"count":150,
			"max":[
				4.467599868774414,
				32.2599983215332,
				18.046100616455078
			],
			"min":[
				-5.877200126647949,
				20.6924991607666,
				8.71969985961914
			],
			"type":"VEC3"
		},
		{
			"bufferView":1,
			"componentType":5126,
			"count":150,
			"type":"VEC3"
		},
		{
			"bufferView":2,
			"componentType":5126,
			"count":150,
			"type":"VEC2"
		},
		{
			"bufferView":3,
			"componentType":5123,
			"count":636,
			"type":"SCALAR"
		},
		{
			"bufferView":4,
			"componentType":5126,
			"count":2994,
			"max":[
				10.8927001953125,
				34.93299865722656,
				23.475900650024414
			],
			"min":[
				-10.897899627685547,
				0.11309999972581863,
				3.4856998920440674
			],
			"type":"VEC3"
		},
		{
			"bufferView":5,
			"componentType":5126,
			"count":2994,
			"type":"VEC3"
		},
		{
			"bufferView":6,
			"componentType":5126,
			"count":2994,
			"type":"VEC2"
		},
		{
			"bufferView":7,
			"componentType":5123,
			"count":17412,
			"type":"SCALAR"
		}
	],
	"bufferViews":[
		{
			"buffer":0,
			"byteLength":1800,
			"byteOffset":0,
			"target":34962
		},
		{
			"buffer":0,
			"byteLength":1800,
			"byteOffset":1800,
			"target":34962
		},
		{
			"buffer":0,
			"byteLength":1200,
			"byteOffset":3600,
			"target":34962
		},
		{
			"buffer":0,
			"byteLength":1272,
			"byteOffset":4800,
			"target":34963
		},
		{
			"buffer":0,
			"byteLength":35928,
			"byteOffset":6072,
			"target":34962
		},
		{
			"buffer":0,
			"byteLength":35928,
			"byteOffset":42000,
			"target":34962
		},
		{
			"buffer":0,
			"byteLength":23952,
			"byteOffset":77928,
			"target":34962
		},
		{
			"buffer":0,
			"byteLength":34824,
			"byteOffset":101880,
			"target":34963
		}
	],
	"buffers":[
		{
			"byteLength":136704,
			"uri":"Modelo3.bin"
		}
	]
}
