{
	"asset":{
		"generator":"Khronos glTF Blender I/O v4.4.56",
		"version":"2.0"
	},
	"scene":0,
	"scenes":[
		{
			"name":"Scene",
			"nodes":[
				0
			]
		}
	],
	"nodes":[
		{
			"mesh":0,
			"name":"Node"
		}
	],
	"materials":[
		{
			"name":"mat15",
			"pbrMetallicRoughness":{
				"baseColorFactor":[
					0.6299999952316284,
					0.699999988079071,
					0.7200000286102295,
					1
				],
				"metallicFactor":0
			}
		},
		{
			"name":"mat17",
			"pbrMetallicRoughness":{
				"baseColorFactor":[
					0.05999999865889549,
					0.10000000149011612,
					0.12999999523162842,
					1
				],
				"metallicFactor":0
			}
		},
		{
			"name":"mat23",
			"pbrMetallicRoughness":{
				"baseColorFactor":[
					0.009999999776482582,
					0.009999999776482582,
					0.009999999776482582,
					1
				],
				"metallicFactor":0
			}
		}
	],
	"meshes":[
		{
			"name":"Node-Mesh",
			"primitives":[
				{
					"attributes":{
						"POSITION":0,
						"NORMAL":1
					},
					"indices":2,
					"material":0
				},
				{
					"attributes":{
						"POSITION":3,
						"NORMAL":4
					},
					"indices":5,
					"material":1
				},
				{
					"attributes":{
						"POSITION":6,
						"NORMAL":7
					},
					"indices":8,
					"material":2
				}
			]
		}
	],
	"accessors":[
		{
			"bufferView":0,
			"componentType":5126,
			"count":354,
			"max":[
				0.2653672993183136,
				0.14160320162773132,
				0.2679375112056732
			],
			"min":[
				-0.26463279128074646,
				-0.12839700281620026,
				-0.27206259965896606
			],
			"type":"VEC3"
		},
		{
			"bufferView":1,
			"componentType":5126,
			"count":354,
			"type":"VEC3"
		},
		{
			"bufferView":2,
			"componentType":5123,
			"count":540,
			"type":"SCALAR"
		},
		{
			"bufferView":3,
			"componentType":5126,
			"count":112,
			"max":[
				0.2653672993183136,
				0.14569400250911713,
				0.2679375112056732
			],
			"min":[
				-0.26463279128074646,
				-0.12365719676017761,
				-0.27206259965896606
			],
			"type":"VEC3"
		},
		{
			"bufferView":4,
			"componentType":5126,
			"count":112,
			"type":"VEC3"
		},
		{
			"bufferView":5,
			"componentType":5123,
			"count":156,
			"type":"SCALAR"
		},
		{
			"bufferView":6,
			"componentType":5126,
			"count":16,
			"max":[
				0.011558650061488152,
				0.0966029167175293,
				0.03840804100036621
			],
			"min":[
				-0.010941149666905403,
				0.07160282135009766,
				-0.03159188851714134
			],
			"type":"VEC3"
		},
		{
			"bufferView":7,
			"componentType":5126,
			"count":16,
			"type":"VEC3"
		},
		{
			"bufferView":8,
			"componentType":5123,
			"count":24,
			"type":"SCALAR"
		}
	],
	"bufferViews":[
		{
			"buffer":0,
			"byteLength":4248,
			"byteOffset":0,
			"target":34962
		},
		{
			"buffer":0,
			"byteLength":4248,
			"byteOffset":4248,
			"target":34962
		},
		{
			"buffer":0,
			"byteLength":1080,
			"byteOffset":8496,
			"target":34963
		},
		{
			"buffer":0,
			"byteLength":1344,
			"byteOffset":9576,
			"target":34962
		},
		{
			"buffer":0,
			"byteLength":1344,
			"byteOffset":10920,
			"target":34962
		},
		{
			"buffer":0,
			"byteLength":312,
			"byteOffset":12264,
			"target":34963
		},
		{
			"buffer":0,
			"byteLength":192,
			"byteOffset":12576,
			"target":34962
		},
		{
			"buffer":0,
			"byteLength":192,
			"byteOffset":12768,
			"target":34962
		},
		{
			"buffer":0,
			"byteLength":48,
			"byteOffset":12960,
			"target":34963
		}
	],
	"buffers":[
		{
			"byteLength":13008,
			"uri":"Piramide2.bin"
		}
	]
}
