{
	"asset":{
		"generator":"Khronos glTF Blender I/O v4.4.56",
		"version":"2.0"
	},
	"scene":0,
	"scenes":[
		{
			"name":"Scene",
			"nodes":[
				0
			]
		}
	],
	"nodes":[
		{
			"mesh":0,
			"name":"Node"
		}
	],
	"materials":[
		{
			"name":"mat18",
			"pbrMetallicRoughness":{
				"baseColorFactor":[
					1,
					0.6100000143051147,
					0.25,
					1
				],
				"metallicFactor":0
			}
		}
	],
	"meshes":[
		{
			"name":"Node-Mesh",
			"primitives":[
				{
					"attributes":{
						"POSITION":0,
						"NORMAL":1
					},
					"indices":2,
					"material":0
				}
			]
		}
	],
	"accessors":[
		{
			"bufferView":0,
			"componentType":5126,
			"count":721,
			"max":[
				0.5507174134254456,
				0.2513664960861206,
				0.5659170150756836
			],
			"min":[
				-0.5578457713127136,
				-0.35544759035110474,
				-0.5526164174079895
			],
			"type":"VEC3"
		},
		{
			"bufferView":1,
			"componentType":5126,
			"count":721,
			"type":"VEC3"
		},
		{
			"bufferView":2,
			"componentType":5123,
			"count":1056,
			"type":"SCALAR"
		}
	],
	"bufferViews":[
		{
			"buffer":0,
			"byteLength":8652,
			"byteOffset":0,
			"target":34962
		},
		{
			"buffer":0,
			"byteLength":8652,
			"byteOffset":8652,
			"target":34962
		},
		{
			"buffer":0,
			"byteLength":2112,
			"byteOffset":17304,
			"target":34963
		}
	],
	"buffers":[
		{
			"byteLength":19416,
			"uri":"Piramide3.bin"
		}
	]
}
